<mxfile host="app.diagrams.net" modified="2024-07-19T09:30:25.699Z" agent="Mozilla/5.0 (Windows NT 10.0; Win64; x64) AppleWebKit/537.36 (KHTML, like Gecko) Chrome/126.0.0.0 Safari/537.36 Edg/126.0.0.0" etag="S0Eqtrbf6jazaKd4ZPp5" version="24.7.1" type="device">
  <diagram name="Page-1" id="Vi2dfqfJPt87bstrH0g1">
    <mxGraphModel dx="1386" dy="905" grid="1" gridSize="10" guides="1" tooltips="1" connect="1" arrows="1" fold="1" page="1" pageScale="1" pageWidth="827" pageHeight="1169" math="0" shadow="0">
      <root>
        <mxCell id="0" />
        <mxCell id="1" parent="0" />
        <mxCell id="D4D40iqM2hMVkVnNx5RX-7" style="edgeStyle=orthogonalEdgeStyle;rounded=0;orthogonalLoop=1;jettySize=auto;html=1;entryX=0.5;entryY=0;entryDx=0;entryDy=0;" edge="1" parent="1" source="D4D40iqM2hMVkVnNx5RX-1" target="D4D40iqM2hMVkVnNx5RX-2">
          <mxGeometry relative="1" as="geometry" />
        </mxCell>
        <mxCell id="D4D40iqM2hMVkVnNx5RX-1" value="START" style="ellipse;whiteSpace=wrap;html=1;" vertex="1" parent="1">
          <mxGeometry x="340" y="80" width="120" height="80" as="geometry" />
        </mxCell>
        <mxCell id="D4D40iqM2hMVkVnNx5RX-8" style="edgeStyle=orthogonalEdgeStyle;rounded=0;orthogonalLoop=1;jettySize=auto;html=1;entryX=0.5;entryY=0;entryDx=0;entryDy=0;" edge="1" parent="1" source="D4D40iqM2hMVkVnNx5RX-2" target="D4D40iqM2hMVkVnNx5RX-3">
          <mxGeometry relative="1" as="geometry" />
        </mxCell>
        <mxCell id="D4D40iqM2hMVkVnNx5RX-2" value="INPUT&amp;nbsp; &amp;nbsp;rate ,years ,amount" style="shape=parallelogram;perimeter=parallelogramPerimeter;whiteSpace=wrap;html=1;fixedSize=1;" vertex="1" parent="1">
          <mxGeometry x="230" y="230" width="330" height="110" as="geometry" />
        </mxCell>
        <mxCell id="D4D40iqM2hMVkVnNx5RX-9" style="edgeStyle=orthogonalEdgeStyle;rounded=0;orthogonalLoop=1;jettySize=auto;html=1;entryX=0.5;entryY=0;entryDx=0;entryDy=0;" edge="1" parent="1" source="D4D40iqM2hMVkVnNx5RX-3" target="D4D40iqM2hMVkVnNx5RX-4">
          <mxGeometry relative="1" as="geometry" />
        </mxCell>
        <mxCell id="D4D40iqM2hMVkVnNx5RX-3" value="&lt;br&gt;Interest = (amount*years*rate)/100&lt;div&gt;&lt;br&gt;&lt;/div&gt;" style="rounded=0;whiteSpace=wrap;html=1;" vertex="1" parent="1">
          <mxGeometry x="242.5" y="400" width="297.5" height="70" as="geometry" />
        </mxCell>
        <mxCell id="D4D40iqM2hMVkVnNx5RX-4" value="PRINT Interest" style="shape=parallelogram;perimeter=parallelogramPerimeter;whiteSpace=wrap;html=1;fixedSize=1;" vertex="1" parent="1">
          <mxGeometry x="261.25" y="530" width="260" height="60" as="geometry" />
        </mxCell>
        <mxCell id="D4D40iqM2hMVkVnNx5RX-6" value="END" style="ellipse;whiteSpace=wrap;html=1;" vertex="1" parent="1">
          <mxGeometry x="340" y="660" width="120" height="80" as="geometry" />
        </mxCell>
        <mxCell id="D4D40iqM2hMVkVnNx5RX-10" style="edgeStyle=orthogonalEdgeStyle;rounded=0;orthogonalLoop=1;jettySize=auto;html=1;entryX=0.433;entryY=0.025;entryDx=0;entryDy=0;entryPerimeter=0;" edge="1" parent="1" source="D4D40iqM2hMVkVnNx5RX-4" target="D4D40iqM2hMVkVnNx5RX-6">
          <mxGeometry relative="1" as="geometry" />
        </mxCell>
      </root>
    </mxGraphModel>
  </diagram>
</mxfile>
